#N canvas 95 63 580 723 12;
#X declare -path CP430;
#X declare -path AudioFiles/Impulseresponces;
#X declare -path more;
#X declare -path /Impulseresponces;
#X obj 3 2 cnv 15 1 1 empty empty Tape_FFT_Convolution 20 12 0 14 -262144
-159808 0;
#N canvas 0 25 539 323 sampleOnOff 0;
#X obj 100 100 cnv 15 300 60 empty empty empty 20 12 0 14 -203904 -66577
0;
#X obj 38 15 loadbang;
#X msg 38 38 1;
#X obj 5 166 s sampleOnOff;
#X obj 106 104 tgl 15 0 empty empty empty 17 7 0 10 -204800 -1 -1 1
1;
#X symbolatom 106 137 10 0 0 0 - - -;
#X obj 219 14 r sampleOnOff;
#X msg 219 63 set Sample;
#X msg 300 61 set ADC;
#X obj 219 38 sel 1;
#X obj 300 38 sel 0;
#X obj 184 104 tgl 15 0 empty empty empty 17 7 0 10 -204800 -1 -1 1
1;
#X text 122 102 Source;
#X text 201 103 Master;
#X obj 186 186 s dsp;
#X obj 265 115 hsl 128 15 0 4.5 0 0 empty empty empty -2 -8 0 10 -204800
-1 -1 5644 1;
#X obj 262 165 s squelch;
#X obj 376 29 loadbang;
#X msg 376 52 2;
#X obj 266 142 hsl 128 15 0 1 0 0 empty empty empty -2 -8 0 10 -204800
-1 -1 0 1;
#X text 260 101 Squelch;
#X text 261 127 Wet Dry;
#X msg 417 52 0;
#X obj 352 167 s drywet;
#X obj 6 282 declare -path CP430;
#X obj 6 260 declare -path AudioFiles/Impulseresponces;
#X connect 1 0 2 0;
#X connect 2 0 3 0;
#X connect 2 0 11 0;
#X connect 2 0 4 0;
#X connect 4 0 3 0;
#X connect 6 0 9 0;
#X connect 6 0 10 0;
#X connect 7 0 5 0;
#X connect 8 0 5 0;
#X connect 9 0 7 0;
#X connect 10 0 8 0;
#X connect 11 0 14 0;
#X connect 15 0 16 0;
#X connect 17 0 18 0;
#X connect 17 0 15 0;
#X connect 17 0 22 0;
#X connect 18 0 15 0;
#X connect 19 0 23 0;
#X connect 22 0 19 0;
#X coords 0 -1 1 1 300 60 2 100 100;
#X restore 24 26 pd sampleOnOff;
#N canvas 298 217 507 488 MasterControls 0;
#X obj 100 100 cnv 15 300 150 empty empty empty 20 12 0 14 -204800
-66577 0;
#X obj 106 104 bng 15 250 50 0 empty empty 1_URL 17 7 0 10 -203904
-1 -1;
#X obj 106 126 bng 15 250 50 0 empty empty 1_StartRecording 17 7 0
10 -203904 -1 -1;
#X obj 106 148 bng 15 250 50 0 empty empty 1_StopRecording 17 7 0 10
-203904 -1 -1;
#X obj 106 170 tgl 15 0 empty empty 1_Play/Stop 17 7 0 10 -203904 -1
-1 0 1;
#X obj 236 120 hsl 128 15 0 1 0 1 pan_Track1 empty Pan_Track_1 -2 -8
0 10 -203904 -1 -1 6350 1;
#X obj 233 32 loadbang;
#X obj 237 153 hsl 128 15 0 1 0 1 volume_Track1 empty Volume_Track_1
-2 -8 0 10 -203904 -1 -1 10000 1;
#N canvas 150 25 450 300 Track1_URL 0;
#X obj 37 25 inlet;
#X msg 37 60 symbol /Users/issacthomas/Desktop/;
#X obj 37 83 s saveURL;
#X msg 291 61 symbol Test;
#X obj 291 83 s title_Track1;
#X connect 0 0 1 0;
#X connect 1 0 2 0;
#X connect 3 0 4 0;
#X restore -1 127 pd Track1_URL;
#X obj -22 148 s startRecording;
#X obj -14 172 s stopRecording;
#X obj 2 199 s play_Track1;
#X obj 109 230 hsl 128 15 0.1 5 0 0 wowRate empty Wow_Rate -2 -8 0
10 -203904 -1 -1 0 1;
#X obj 246 200 tgl 15 0 reverse empty Reverse 17 7 0 10 -203904 -1
-1 0 1;
#X obj 109 200 hsl 128 15 0.01 1 1 0 pitch_mod empty Pitch_Mod_(Quarter_Speed_-_Double_Speed)
-2 -8 0 10 -203904 -1 -1 10788 1;
#X obj 323 268 loadbang;
#X msg 358 291 0;
#X msg 233 55 0.5;
#X obj 248 230 hsl 128 15 0 0.003 0 0 wowExtent empty Wow_Depth -2
-8 0 10 -203904 -1 -1 0 1;
#X connect 1 0 8 0;
#X connect 2 0 9 0;
#X connect 3 0 10 0;
#X connect 4 0 11 0;
#X connect 6 0 17 0;
#X connect 15 0 16 0;
#X connect 16 0 12 0;
#X connect 17 0 5 0;
#X connect 17 0 14 0;
#X coords 0 -1 1 1 300 150 2 100 100;
#X restore 24 89 pd MasterControls 1;
#N canvas 10 175 973 626 FFT 0;
#N canvas 0 25 1440 768 fft-analysis 0;
#X obj 14 56 inlet~;
#N canvas 0 22 450 278 (subpatch) 0;
#X array inputL 1024 float 0;
#X coords 0 1 1023 -1 200 140 1 0 0;
#X restore 174 149 graph;
#N canvas 0 22 450 278 (subpatch) 0;
#X array IR 44100 float 0;
#X coords 0 1 44099 -1 200 140 1 0 0;
#X restore 380 149 graph;
#X obj 305 111 soundfiler;
#X obj 651 547 *~;
#X obj 613 547 *~;
#X obj 996 279 *~;
#X obj 962 278 *~;
#X obj 962 304 +~;
#X obj 699 281 *~;
#X obj 665 281 *~;
#X obj 665 306 +~;
#X obj 665 448 *~, f 43;
#X obj 665 331 +~ 1e-20;
#X obj 961 149 tabreceive~ IR;
#X obj 613 694 outlet~;
#X obj 611 198 *~;
#X obj 658 175 tabreceive~ hann;
#X obj 613 654 *~;
#X obj 631 630 tabreceive~ hann;
#X obj 982 173 tabreceive~ hann;
#N canvas 0 22 450 278 (subpatch) 0;
#X array IR2 1024 float 0;
#X coords 0 1 1023 -1 200 140 1 0 0;
#X restore 380 310 graph;
#X obj 1007 222 tabsend~ IR2;
#N canvas 0 22 450 278 (subpatch) 0;
#X array inputR 1024 float 0;
#X coords 0 1 1023 -1 200 140 1 0 0;
#X restore 175 310 graph;
#X obj 961 199 *~;
#X text 67 65 Source Inlet;
#X text 129 105 Write to input array;
#X text 652 198 Apply hann to input;
#X text 996 197 Apply Hann to IR;
#X text 1097 224 Send to array;
#X text 1013 248 Run FFT;
#X text 1035 332 Sum the results;
#X text 1035 349 Squareroot the results;
#X text 656 224 Run FFT;
#X text 731 308 Sum the results;
#X text 736 358 Squareroot the results;
#X text 795 422 Send to array;
#X text 24 219 IR width = IR length;
#X text 39 198 Input width = 1024;
#X text 39 335 Input width = 1024;
#X text 46 357 IR width = 1024!!;
#X obj 14 34 cnv 15 1 1 empty empty 1_Init_Settings 20 12 0 10 -262144
-258113 0;
#X text 728 273 Calculate modulus of complex;
#X text 723 289 FFT to obtain abs values;
#X text 1036 272 Calculate modulus of complex FFT to;
#X text 1037 287 obtain abs values;
#X text 723 474 Normalise 3N/2;
#X obj 665 474 /~ 1536;
#X obj 13 9 block~ 1024 4;
#X obj 665 423 clip~ 0 0.5;
#X obj 810 528 r squelch;
#X floatatom 810 551 5 0 0 0 - - -;
#X obj 665 356 sqrt~;
#X obj 962 356 sqrt~;
#X floatatom 810 596 5 0 0 0 - - -;
#X obj 810 573 expr 0.01 * $f1 * $f1;
#X obj 611 223 fft~;
#X obj 961 224 fft~;
#X obj 613 604 ifft~;
#X obj 1330 548 *~;
#X obj 1292 548 *~;
#X obj 1675 280 *~;
#X obj 1641 279 *~;
#X obj 1641 305 +~;
#X obj 1378 282 *~;
#X obj 1344 282 *~;
#X obj 1344 307 +~;
#X obj 1344 449 *~, f 43;
#X obj 1344 332 +~ 1e-20;
#X obj 1640 150 tabreceive~ IR;
#X obj 1292 695 outlet~;
#X obj 1290 199 *~;
#X obj 1337 176 tabreceive~ hann;
#X obj 1292 655 *~;
#X obj 1310 631 tabreceive~ hann;
#X obj 1661 174 tabreceive~ hann;
#X obj 1640 200 *~;
#X text 1331 199 Apply hann to input;
#X text 1675 198 Apply Hann to IR;
#X text 1692 249 Run FFT;
#X text 1714 333 Sum the results;
#X text 1714 350 Squareroot the results;
#X text 1335 225 Run FFT;
#X text 1410 309 Sum the results;
#X text 1415 359 Squareroot the results;
#X text 1474 423 Send to array;
#X text 1407 274 Calculate modulus of complex;
#X text 1402 290 FFT to obtain abs values;
#X text 1715 273 Calculate modulus of complex FFT to;
#X text 1716 288 obtain abs values;
#X text 1402 475 Normalise 3N/2;
#X obj 1344 475 /~ 1536;
#X obj 1344 424 clip~ 0 0.5;
#X obj 1344 357 sqrt~;
#X obj 1641 357 sqrt~;
#X obj 1290 224 fft~;
#X obj 1640 225 fft~;
#X obj 1292 605 ifft~;
#X obj 1289 150 tabreceive~ inputR;
#X obj 610 149 tabreceive~ inputL;
#X obj 13 81 tabsend~ inputL;
#X obj 161 56 inlet~;
#X text 214 65 Source Inlet;
#X obj 160 81 tabsend~ inputR;
#X obj 315 55 r D90;
#X obj 559 55 r XLII90;
#X obj 858 55 r UR90;
#X obj 1144 55 r MicroCassette;
#X msg 305 89 read TDK_D90_Gain_3.wav IR;
#X msg 559 88 read Maxell_XLII90_Gain_3.wav IR;
#X msg 856 88 read Maxell_UR90_Gain_3.wav IR;
#X obj 841 18 declare -path more;
#X msg 1142 87 read MicroCassette.wav IR;
#X obj 595 18 declare -path /Impulseresponces;
#X obj 1266 56 loadbang;
#X connect 0 0 100 0;
#X connect 4 0 58 1;
#X connect 5 0 58 0;
#X connect 6 0 8 1;
#X connect 7 0 8 0;
#X connect 8 0 53 0;
#X connect 9 0 11 1;
#X connect 10 0 11 0;
#X connect 11 0 13 0;
#X connect 12 0 47 0;
#X connect 13 0 52 0;
#X connect 14 0 24 0;
#X connect 16 0 56 0;
#X connect 17 0 16 1;
#X connect 18 0 15 0;
#X connect 19 0 18 1;
#X connect 20 0 24 1;
#X connect 24 0 22 0;
#X connect 24 0 57 0;
#X connect 47 0 4 1;
#X connect 47 0 5 1;
#X connect 49 0 12 0;
#X connect 50 0 51 0;
#X connect 51 0 55 0;
#X connect 52 0 49 0;
#X connect 53 0 12 1;
#X connect 54 0 49 2;
#X connect 54 0 92 2;
#X connect 55 0 54 0;
#X connect 56 0 10 1;
#X connect 56 0 10 0;
#X connect 56 0 5 0;
#X connect 56 1 9 1;
#X connect 56 1 9 0;
#X connect 56 1 4 0;
#X connect 57 0 7 0;
#X connect 57 0 7 1;
#X connect 57 1 6 0;
#X connect 57 1 6 1;
#X connect 58 0 18 0;
#X connect 59 0 97 1;
#X connect 60 0 97 0;
#X connect 61 0 63 1;
#X connect 62 0 63 0;
#X connect 63 0 94 0;
#X connect 64 0 66 1;
#X connect 65 0 66 0;
#X connect 66 0 68 0;
#X connect 67 0 91 0;
#X connect 68 0 93 0;
#X connect 69 0 76 0;
#X connect 71 0 95 0;
#X connect 72 0 71 1;
#X connect 73 0 70 0;
#X connect 74 0 73 1;
#X connect 75 0 76 1;
#X connect 76 0 96 0;
#X connect 91 0 59 1;
#X connect 91 0 60 1;
#X connect 92 0 67 0;
#X connect 93 0 92 0;
#X connect 94 0 67 1;
#X connect 95 0 65 1;
#X connect 95 0 65 0;
#X connect 95 0 60 0;
#X connect 95 1 64 1;
#X connect 95 1 64 0;
#X connect 95 1 59 0;
#X connect 96 0 62 0;
#X connect 96 0 62 1;
#X connect 96 1 61 0;
#X connect 96 1 61 1;
#X connect 97 0 73 0;
#X connect 98 0 71 0;
#X connect 99 0 16 0;
#X connect 101 0 103 0;
#X connect 104 0 108 0;
#X connect 105 0 109 0;
#X connect 106 0 110 0;
#X connect 107 0 112 0;
#X connect 108 0 3 0;
#X connect 109 0 3 0;
#X connect 110 0 3 0;
#X connect 112 0 3 0;
#X connect 114 0 112 0;
#X restore 241 319 pd fft-analysis;
#X f 31;
#X obj 241 345 clip~ -1 1;
#X text 469 321 FFT Convolution engine;
#X text 240 652 Audio Output;
#X obj 240 521 *~;
#X obj 258 473 r dsp;
#N canvas 211 230 1229 558 Track1 0;
#X obj 438 394 soundfiler;
#X obj 11 78 outlet~;
#X msg 470 78 set symbol \, add2 \$1;
#X obj 455 418 s Track1_length;
#N canvas 565 135 859 666 readTrackArray 0;
#X obj 104 21 samplerate~;
#X floatatom 23 25 10 0 0 0 - - -;
#X obj 23 44 expr $f1/$f2;
#X obj 23 69 expr 1/$f1;
#X obj 23 -22 r Track1_length;
#X text 136 -18 Get SampleLength of Track;
#X obj 23 1 t f b;
#X obj 17 366 sig~;
#X obj 17 450 phasor~;
#X obj 16 476 *~, f 15;
#X obj 118 455 r Track1_length;
#X obj 16 499 tabread~ Track1;
#N canvas 0 22 450 278 (subpatch) 0;
#X array Track1 431484 float 2;
#X coords 0 1 431484 -1 200 140 1 0 0;
#X restore 576 31 graph;
#X obj 16 766 outlet~;
#X obj 23 231 *, f 46;
#X obj 23 138 *, f 39;
#X text 194 21 Get Sample Rate;
#X text 381 82 IsReversed?;
#X text 54 365 Convert frequency to signal value;
#X text 248 452 Read array from index 1 to N;
#X text 136 499 Read from Array;
#X obj 18 337 spigot;
#X obj 54 296 == 1;
#X obj 100 296 sel 0;
#X obj 100 319 del 2;
#X msg 100 340 0;
#X obj 56 251 r play_Track1;
#N canvas 446 234 450 300 pan 0;
#X obj 37 37 inlet~;
#X obj 40 184 *~;
#X obj 105 183 *~;
#X obj 55 151 + 1;
#X obj 122 75 r pan_Track1;
#X obj 40 207 outlet~;
#X obj 105 206 outlet~;
#X text 223 73 Recieve Pan value;
#X text 90 129 Invert value for left channel;
#X obj 55 129 * -1;
#X connect 0 0 1 0;
#X connect 0 0 2 0;
#X connect 1 0 5 0;
#X connect 2 0 6 0;
#X connect 3 0 1 1;
#X connect 4 0 2 1;
#X connect 4 0 9 0;
#X connect 9 0 3 0;
#X restore 16 663 pd pan;
#X obj 86 765 outlet~;
#X text 150 765 Left and Right Outlet;
#X text 168 296 Stop playing is play_Track is off;
#X text 66 664 Pan Subpatch;
#X text 113 46 Get period of full file;
#X text 96 72 Get frequency for playback;
#X obj 16 522 *~, f 41;
#X obj 300 476 r volume_Track1;
#X obj 300 499 line~ \$1 10;
#X text 419 476 Recieve Track Volume;
#X text 392 500 Slew at signal rate;
#N canvas 0 25 450 300 reversed 0;
#X obj 72 45 r reverse;
#X obj 72 69 sel 0;
#X obj 124 69 sel 1;
#X msg 72 93 1;
#X msg 124 92 -1;
#X obj 72 116 outlet;
#X text 185 68 When bool = true reverse playback;
#X text 148 44 IsReversed?;
#X connect 0 0 1 0;
#X connect 0 0 2 0;
#X connect 1 0 3 0;
#X connect 2 0 4 0;
#X connect 3 0 5 0;
#X connect 4 0 5 0;
#X restore 294 84 pd reversed;
#X obj -12 335 f;
#X obj 54 316 t b f;
#X obj 23 92 t f f;
#X obj 23 115 f;
#X obj 294 107 t b f;
#X obj 23 161 t f f;
#X obj 23 204 f;
#X obj 56 274 t f f f;
#X obj 16 592 *~;
#X obj 35 564 line~ \$1 50;
#X obj 356 -4 loadbang;
#X msg 356 19 1;
#X obj 356 42 t f f f;
#N canvas 57 148 450 300 pitch 0;
#X obj 92 21 r pitch_mod;
#X obj 143 182 line \$1 10;
#X text 151 45 Get Pitch Mod Value;
#X text 136 157 Slew Value;
#X obj 91 158 t b f;
#X obj 92 67 + 0.25;
#X obj 91 239 outlet;
#X obj 143 239 outlet;
#X floatatom 49 21 5 0 0 0 - - -;
#X floatatom 115 102 5 0 0 0 - - -;
#X obj 93 44 * 1.5;
#X connect 0 0 10 0;
#X connect 1 0 7 0;
#X connect 4 0 6 0;
#X connect 4 1 1 0;
#X connect 5 0 4 0;
#X connect 5 0 9 0;
#X connect 8 0 10 0;
#X connect 10 0 5 0;
#X restore 289 159 pd pitch;
#X floatatom -42 429 5 0 0 0 - - -;
#X obj -42 451 s speed;
#X obj 16 738 *~;
#X obj 86 738 *~;
#X obj 114 685 r loadbuffer_Track1;
#X obj 114 708 line~ \$1 10;
#X connect 0 0 2 1;
#X connect 1 0 2 0;
#X connect 2 0 3 0;
#X connect 3 0 42 0;
#X connect 4 0 6 0;
#X connect 6 0 1 0;
#X connect 6 1 0 0;
#X connect 7 0 8 0;
#X connect 8 0 9 0;
#X connect 9 0 11 0;
#X connect 10 0 9 1;
#X connect 11 0 34 0;
#X connect 14 0 21 0;
#X connect 14 0 40 1;
#X connect 15 0 45 0;
#X connect 21 0 7 0;
#X connect 21 0 54 0;
#X connect 22 0 41 0;
#X connect 23 0 24 0;
#X connect 24 0 25 0;
#X connect 25 0 7 0;
#X connect 26 0 47 0;
#X connect 27 0 56 0;
#X connect 27 1 57 0;
#X connect 34 0 48 0;
#X connect 35 0 36 0;
#X connect 36 0 34 1;
#X connect 39 0 44 0;
#X connect 40 0 7 0;
#X connect 40 0 54 0;
#X connect 41 0 40 0;
#X connect 41 1 21 1;
#X connect 42 0 43 0;
#X connect 42 1 43 1;
#X connect 43 0 15 0;
#X connect 44 0 43 0;
#X connect 44 1 15 1;
#X connect 45 0 46 0;
#X connect 45 1 46 1;
#X connect 46 0 14 0;
#X connect 47 0 22 0;
#X connect 47 1 23 0;
#X connect 47 2 49 0;
#X connect 48 0 27 0;
#X connect 49 0 48 1;
#X connect 50 0 51 0;
#X connect 51 0 52 0;
#X connect 52 0 44 0;
#X connect 52 2 47 0;
#X connect 53 0 46 0;
#X connect 53 1 14 1;
#X connect 54 0 55 0;
#X connect 56 0 13 0;
#X connect 57 0 28 0;
#X connect 58 0 59 0;
#X connect 59 0 57 1;
#X connect 59 0 56 1;
#X restore 11 52 pd readTrackArray;
#X obj 126 78 outlet~;
#X text 585 52 Recieve File Location String (NOT IN URL FORM!);
#X text 624 78 Store as symbol;
#X text 716 252 Store audio file in track array;
#X text 579 331 Output sample length of audio file;
#X obj 287 26 r readURL_Track1;
#X msg 480 155 set %s\$1.wav;
#X obj 438 182 makefilename;
#X msg 437 108 symbol /Users/issacthomas/Desktop/;
#X obj 480 131 r title_Track1;
#X obj 438 51 t b s;
#X msg 437 205 set symbol \$1;
#X msg 438 228 symbol file.0;
#X obj 438 5 r saveURL;
#X obj 287 49 t b b;
#X obj 438 28 print saveURL_InTrack;
#X obj 250 418 print SymbolToReadArray;
#X obj 249 454 print MessageToSoundFiler;
#X msg 438 260 read -resize \$1 Track1;
#X msg 439 443 \; Track1 normalize;
#X text 581 314 Normalizes the array;
#X obj 304 228 r open_Track1;
#X obj 466 285 t b b;
#X msg 530 307 0;
#X msg 466 331 1;
#X obj 467 354 s loadbuffer_Track1;
#X obj 401 307 loadbang;
#X obj 466 307 del 200;
#X connect 0 0 3 0;
#X connect 0 0 24 0;
#X connect 2 0 13 0;
#X connect 4 0 1 0;
#X connect 4 1 5 0;
#X connect 10 0 19 0;
#X connect 11 0 12 0;
#X connect 12 0 16 0;
#X connect 13 0 12 0;
#X connect 14 0 11 0;
#X connect 15 0 13 0;
#X connect 15 1 2 0;
#X connect 16 0 17 0;
#X connect 17 0 23 0;
#X connect 17 0 21 0;
#X connect 18 0 15 0;
#X connect 18 0 20 0;
#X connect 19 0 17 0;
#X connect 19 1 13 0;
#X connect 23 0 0 0;
#X connect 23 0 22 0;
#X connect 23 0 27 0;
#X connect 26 0 23 0;
#X connect 27 0 28 0;
#X connect 27 0 32 0;
#X connect 28 0 30 0;
#X connect 29 0 30 0;
#X connect 31 0 29 0;
#X connect 32 0 29 0;
#X restore 241 218 pd Track1;
#N canvas 336 25 1104 741 ADC 0;
#X obj 88 61 adc~ 1;
#X text 142 62 Single channel ADC input;
#X msg 102 390 start;
#X msg 148 423 stop;
#X obj 84 459 writesf~ 1;
#X text 282 83 Core Data Directory (sent from X-Code);
#X obj 195 470 bng 15 250 50 0 empty empty empty 17 7 0 10 -262144
-1 -1;
#N canvas 213 450 809 348 RecieveTrackURL's 0;
#X obj 66 178 outlet;
#X text 141 63 Core Data Directory (sent from X-Code);
#X obj 66 63 r saveURL;
#X connect 2 0 0 0;
#X restore 130 86 pd RecieveTrackURL's;
#X text 343 136 Set recording parameters (Name \, format \, Location)
;
#X obj 151 285 r startRecording;
#X obj 149 358 r stopRecording;
#X obj 196 504 del 200;
#X obj 197 606 s readURL_Track1;
#X obj 318 606 s readURL_Track2;
#X obj 440 606 s readURL_Track3;
#X obj 562 606 s readURL_Track4;
#X obj 258 504 r currentTrack;
#X obj 197 553 route 1 2 3 4, f 70;
#X obj 196 527 f;
#X text 695 547 Once recording has completed \, send bang to correct
track to open file;
#X text 365 503 recieved from 'pd recieveTrackURL's;
#X text -53 461 Create Audio File;
#X text 270 283 Recieved from App;
#X text 271 369 Recieved from App;
#N canvas 37 25 729 300 TrackNames 0;
#X obj 37 43 r title_Track1;
#X obj 149 43 r title_Track2;
#X obj 255 43 r title_Track3;
#X obj 367 43 r title_Track4;
#X text 38 20 Recieve String for Track Name;
#X obj 40 172 outlet;
#X msg 87 66 1, f 4;
#X msg 174 74 2;
#X msg 305 74 3;
#X msg 424 74 4;
#X obj 174 171 s currentTrack;
#X text 282 172 Set send the index of the current recording track;
#X connect 0 0 6 0;
#X connect 0 0 5 0;
#X connect 1 0 7 0;
#X connect 1 0 5 0;
#X connect 2 0 8 0;
#X connect 2 0 5 0;
#X connect 3 0 9 0;
#X connect 3 0 5 0;
#X connect 6 0 10 0;
#X connect 7 0 10 0;
#X connect 8 0 10 0;
#X connect 9 0 10 0;
#X restore 240 112 pd TrackNames;
#X msg 130 208 open -wave -little -bytes 2 -rate 44100 \$1;
#X msg 240 135 set %s\$1.wav;
#X obj 130 182 makefilename;
#X text 343 111 Recieve Track Names;
#X text 221 183 Make file name using user input and CoreData URL;
#X text 436 207 Set format and file name for new recording;
#X obj 106 231 print TRACKFILENAME;
#X obj 437 413 readsf~;
#X msg 437 366 open Tape_Record.wav;
#X msg 594 366 open Tape_Stoprecord.wav;
#X obj 594 413 readsf~;
#X obj 436 331 loadbang;
#X obj 151 308 t b b;
#X obj 160 378 t b b;
#X obj 437 436 +~;
#X text 795 366 Tape Machine Button SFX;
#X msg 151 331 1;
#X msg 160 401 1;
#X obj 437 459 *~ 0.05;
#X obj 437 482 throw~ SFX;
#X text 520 480 Send SFX to OutputBus;
#X connect 0 0 4 0;
#X connect 2 0 4 0;
#X connect 3 0 4 0;
#X connect 3 0 6 0;
#X connect 6 0 11 0;
#X connect 7 0 27 0;
#X connect 9 0 2 0;
#X connect 9 0 37 0;
#X connect 10 0 3 0;
#X connect 10 0 38 0;
#X connect 11 0 18 0;
#X connect 16 0 18 1;
#X connect 17 0 12 0;
#X connect 17 1 13 0;
#X connect 17 2 14 0;
#X connect 17 3 15 0;
#X connect 18 0 17 0;
#X connect 24 0 26 0;
#X connect 25 0 4 0;
#X connect 26 0 27 0;
#X connect 27 0 25 0;
#X connect 27 0 31 0;
#X connect 32 0 39 0;
#X connect 33 0 32 0;
#X connect 34 0 35 0;
#X connect 35 0 39 1;
#X connect 36 0 33 0;
#X connect 36 0 34 0;
#X connect 37 0 41 0;
#X connect 37 1 33 0;
#X connect 38 0 42 0;
#X connect 38 1 34 0;
#X connect 39 0 43 0;
#X connect 41 0 32 0;
#X connect 42 0 35 0;
#X connect 43 0 44 0;
#X restore 698 104 pd ADC;
#X obj 455 345 clip~ -1 1;
#X text 536 344 Hard Limit output;
#X obj 455 517 *~;
#X obj 240 628 dac~ 1 2, f 32;
#N canvas 357 264 840 378 Reverb 0;
#X obj 55 47 inlet~;
#X obj 109 47 inlet~;
#X obj 53 350 outlet~;
#X obj 143 351 outlet~;
#X obj 54 123 *~;
#X obj 108 123 *~;
#X obj 80 123 *~;
#X obj 137 123 *~;
#X obj 166 -2 r revDryWet;
#X obj 161 153 r revVol;
#X obj 215 189 r revSize;
#X obj 269 213 r revCross;
#X obj 323 252 r revDamp;
#X obj 215 212 * 100;
#X obj 269 236 * 1800;
#X obj 323 275 * 100;
#X obj 53 298 rev3~ 100 90 600 40, f 39;
#X text 250 45 Dry wet reverb recieve;
#X obj 35 326 +~;
#X obj 125 325 +~;
#X text 345 213 Receive reverb crossover (0-1) and scale to frequency
spectrum (0-18kHz);
#X text 393 249 Recieve Damp Percentage of frequencies above Cross
Over and scale (0-1) - (0-100);
#X text 285 189 Receive reverb size and scale (0-1) - (0-100);
#X text 226 152 Receive reverb volume and scale (0-1) - (0-100);
#X obj 161 186 * 100;
#X obj 170 66 *~ -1;
#X obj 170 89 +~ 1;
#X obj 237 105 loadbang;
#X obj 166 20 line~ \$1 20;
#X msg 237 128 0.9;
#X connect 0 0 4 0;
#X connect 0 0 6 0;
#X connect 1 0 5 0;
#X connect 1 0 7 0;
#X connect 4 0 18 0;
#X connect 5 0 19 0;
#X connect 6 0 16 0;
#X connect 7 0 16 1;
#X connect 8 0 28 0;
#X connect 9 0 24 0;
#X connect 10 0 13 0;
#X connect 11 0 14 0;
#X connect 12 0 15 0;
#X connect 13 0 16 3;
#X connect 14 0 16 4;
#X connect 15 0 16 5;
#X connect 16 0 18 1;
#X connect 16 1 19 1;
#X connect 18 0 2 0;
#X connect 19 0 3 0;
#X connect 24 0 16 2;
#X connect 25 0 26 0;
#X connect 26 0 5 1;
#X connect 26 0 4 1;
#X connect 27 0 29 0;
#X connect 28 0 25 0;
#X connect 28 0 6 1;
#X connect 28 0 7 1;
#X connect 29 0 24 0;
#X restore 241 432 pd Reverb;
#X f 31;
#X obj 258 500 line~ \$1 10;
#X obj 472 473 r dsp;
#X obj 472 496 line~ \$1 10;
#X obj 240 550 hip~ 30;
#X obj 455 543 hip~ 30;
#X obj 241 379 lop~ 1000;
#X obj 455 379 lop~ 1000;
#N canvas 174 73 589 356 WowAndFlutter 0;
#X obj 136 435 fiddle~;
#N canvas 151 455 504 343 wet 0;
#X obj 140 300 outlet~;
#X obj 354 189 catch~ pitchshifter_shifters2;
#X obj 355 293 outlet~;
#X obj 140 189 catch~ pitchshifter_shifters;
#X connect 1 0 2 0;
#X connect 3 0 0 0;
#X restore 99 534 pd wet dry;
#X obj 95 284 inlet~;
#X obj 99 578 outlet~;
#N canvas 0 25 981 472 TranspositionFactor 0;
#X obj 310 114 unpack;
#X floatatom 310 135 5 0 0 0 - - -;
#X floatatom 497 206 5 0 0 0 - - -;
#X text 351 133 Current Pitch;
#X text 542 206 Target Pitch;
#X text 607 314 Momentary Transpotion factor t= 1- sf/SR;
#X text 608 344 s = window size;
#X text 607 360 f = frequency;
#X text 607 373 SR = sample rate;
#X text 605 331 f=(t-1)*SR/s;
#X obj 284 71 inlet~;
#X obj 497 226 mtof;
#X floatatom 497 247 10 0 0 0 - - -;
#X obj 310 182 mtof;
#X floatatom 310 203 10 0 0 0 - - -;
#X obj 310 273 pack;
#X obj 310 297 expr ($f2/$f1);
#X text 419 299 Tragetfreq/OrigFreq;
#X text 572 248 Target Frequency;
#X text 348 182 Current Frequency;
#X obj 310 334 expr 1-$f1;
#X obj 310 355 * 1000;
#X obj 310 464 sig~;
#X obj 310 484 outlet~;
#X msg 325 398 \$1 5;
#X obj 310 443 /;
#X obj 325 418 line;
#X msg 514 141 \$1 5;
#X obj 514 161 line;
#X obj 284 94 fiddle~ 2048;
#X obj 310 154 t f f;
#X obj 514 121 r pitchshifter_transposition_slider_s;
#X obj 324 378 r pitchshifter_windowsize_slider_s;
#X obj 496 182 *;
#X text 381 94 Detect Pitch;
#X text 283 49 Wow using Variable Delay Network;
#X connect 0 0 1 0;
#X connect 1 0 30 0;
#X connect 2 0 11 0;
#X connect 10 0 29 0;
#X connect 11 0 12 0;
#X connect 12 0 15 1;
#X connect 13 0 14 0;
#X connect 14 0 15 0;
#X connect 15 0 16 0;
#X connect 16 0 20 0;
#X connect 20 0 21 0;
#X connect 21 0 25 0;
#X connect 22 0 23 0;
#X connect 24 0 26 0;
#X connect 25 0 22 0;
#X connect 26 0 25 1;
#X connect 27 0 28 0;
#X connect 28 0 33 1;
#X connect 29 2 0 0;
#X connect 30 0 13 0;
#X connect 30 1 33 0;
#X connect 31 0 27 0;
#X connect 32 0 24 0;
#X connect 33 0 2 0;
#X restore 95 384 pd TranspositionFactor;
#N canvas 0 376 450 300 doppler 0;
#X obj 64 111 *~, f 30;
#X obj 65 -50 phasor~;
#X obj 64 44 *~, f 10;
#X obj 241 68 *~ 512;
#X obj 64 66 +~ 10;
#X obj 65 -73 inlet~;
#X obj 123 -57 loadbang;
#X obj 64 176 *~;
#X obj 82 134 loadbang;
#X obj 4 111 outlet~;
#X obj 65 -7 +~;
#X obj 65 14 wrap~;
#X obj 120 7 r pitchshifter_windowsize_slider_s;
#X obj 82 154 f 1;
#X obj 64 196 throw~ pitchshifter_shifters;
#X obj 122 -36 f 0.5;
#X obj 64 87 vd~ pitchshifter_delay;
#X obj 241 89 tabread~ hann;
#X connect 0 0 7 0;
#X connect 1 0 10 0;
#X connect 2 0 4 0;
#X connect 3 0 17 0;
#X connect 4 0 16 0;
#X connect 5 0 1 0;
#X connect 6 0 15 0;
#X connect 7 0 14 0;
#X connect 8 0 13 0;
#X connect 10 0 11 0;
#X connect 11 0 2 0;
#X connect 11 0 3 0;
#X connect 12 0 2 1;
#X connect 13 0 7 1;
#X connect 15 0 10 1;
#X connect 16 0 0 0;
#X connect 16 0 9 0;
#X connect 17 0 0 1;
#X restore 95 482 pd doppler;
#N canvas 205 316 450 300 doppler 0;
#X obj 64 111 *~, f 30;
#X obj 65 -50 phasor~;
#X obj 64 44 *~, f 10;
#X obj 270 69 *~ 512;
#X obj 64 66 +~ 10;
#X obj 65 -73 inlet~;
#X obj 123 -57 loadbang;
#X obj 64 176 *~;
#X obj 82 134 loadbang;
#X obj 4 111 outlet~;
#X obj 65 -7 +~;
#X obj 65 14 wrap~;
#X obj 131 13 r pitchshifter_windowsize_slider_s;
#X obj 82 154 f 1;
#X obj 64 196 throw~ pitchshifter_shifters;
#X obj 64 87 vd~ pitchshifter_delay;
#X obj 122 -36 f 0;
#X obj 270 90 tabread~ hann;
#X text 118 -75 Variable Frequency received from Transpotion Factor
;
#X connect 0 0 7 0;
#X connect 1 0 10 0;
#X connect 2 0 4 0;
#X connect 3 0 17 0;
#X connect 4 0 15 0;
#X connect 5 0 1 0;
#X connect 6 0 16 0;
#X connect 7 0 14 0;
#X connect 8 0 13 0;
#X connect 10 0 11 0;
#X connect 11 0 2 0;
#X connect 11 0 3 0;
#X connect 12 0 2 1;
#X connect 13 0 7 1;
#X connect 15 0 0 0;
#X connect 15 0 9 0;
#X connect 16 0 10 1;
#X connect 17 0 0 1;
#X restore 136 413 pd doppler;
#X obj 166 457 s pitchshifter_outputpitch;
#X obj 85 213 snapshot~;
#X obj 85 236 + 1;
#X obj 99 192 metro 2;
#X obj 85 97 osc~ 0.4;
#X obj 85 149 *~ 0.008;
#X obj 114 309 delwrite~ pitchshifter_delay 5000;
#X obj 365 288 inlet~;
#X obj 407 438 fiddle~;
#N canvas 0 25 564 472 TranspositionFactor 0;
#X obj 310 114 unpack;
#X floatatom 310 135 5 0 0 0 - - -;
#X floatatom 497 206 5 0 0 0 - - -;
#X text 344 135 Current Pitch;
#X text 530 203 Target Pitch;
#X text 320 0 Momentary Transpotion factor t= 1- sf/SR;
#X text 454 37 s = window size;
#X text 453 53 f = frequency;
#X text 453 66 SR = sample rate;
#X text 486 16 f=(t-1)*SR/s;
#X obj 284 71 inlet~;
#X obj 496 223 mtof;
#X floatatom 497 242 10 0 0 0 - - -;
#X obj 310 182 mtof;
#X floatatom 310 203 10 0 0 0 - - -;
#X obj 310 273 pack;
#X obj 310 297 expr ($f2/$f1);
#X text 426 297 Tragetfreq/OrigFreq;
#X text 572 244 Target Frequency;
#X text 368 183 Current Frequency;
#X obj 310 334 expr 1-$f1;
#X obj 310 355 * 1000;
#X obj 310 464 sig~;
#X obj 310 484 outlet~;
#X msg 325 398 \$1 5;
#X obj 310 443 /;
#X obj 325 418 line;
#X msg 511 136 \$1 5;
#X obj 511 156 line;
#X floatatom 222 318 5 0 0 0 - - -;
#X obj 284 94 fiddle~ 2048;
#X obj 310 154 t f f;
#X obj 511 116 r pitchshifter_transposition_slider_s;
#X obj 324 378 r pitchshifter_windowsize_slider_s;
#X obj 496 182 *;
#X connect 0 0 1 0;
#X connect 1 0 31 0;
#X connect 2 0 11 0;
#X connect 10 0 30 0;
#X connect 11 0 12 0;
#X connect 12 0 15 1;
#X connect 13 0 14 0;
#X connect 14 0 15 0;
#X connect 15 0 16 0;
#X connect 16 0 20 0;
#X connect 16 0 29 0;
#X connect 20 0 21 0;
#X connect 21 0 25 0;
#X connect 22 0 23 0;
#X connect 24 0 26 0;
#X connect 25 0 22 0;
#X connect 26 0 25 1;
#X connect 27 0 28 0;
#X connect 28 0 34 1;
#X connect 30 2 0 0;
#X connect 31 0 13 0;
#X connect 31 1 34 0;
#X connect 32 0 27 0;
#X connect 33 0 24 0;
#X connect 34 0 2 0;
#X restore 366 387 pd TranspositionFactor;
#N canvas 0 376 450 300 doppler 0;
#X obj 64 111 *~, f 30;
#X obj 65 -50 phasor~;
#X obj 64 44 *~, f 10;
#X obj 241 68 *~ 512;
#X obj 64 66 +~ 10;
#X obj 65 -73 inlet~;
#X obj 123 -57 loadbang;
#X obj 64 176 *~;
#X obj 82 134 loadbang;
#X obj 4 111 outlet~;
#X obj 65 -7 +~;
#X obj 65 14 wrap~;
#X obj 120 7 r pitchshifter_windowsize_slider_s;
#X obj 82 154 f 1;
#X obj 122 -36 f 0.5;
#X obj 241 89 tabread~ hann;
#X obj 64 87 vd~ pitchshifter_delay2;
#X obj 64 196 throw~ pitchshifter_shifters2;
#X connect 0 0 7 0;
#X connect 1 0 10 0;
#X connect 2 0 4 0;
#X connect 3 0 15 0;
#X connect 4 0 16 0;
#X connect 5 0 1 0;
#X connect 6 0 14 0;
#X connect 7 0 17 0;
#X connect 8 0 13 0;
#X connect 10 0 11 0;
#X connect 11 0 2 0;
#X connect 11 0 3 0;
#X connect 12 0 2 1;
#X connect 13 0 7 1;
#X connect 14 0 10 1;
#X connect 15 0 0 1;
#X connect 16 0 0 0;
#X connect 16 0 9 0;
#X restore 368 485 pd doppler;
#N canvas 0 25 450 300 doppler 0;
#X obj 64 111 *~, f 30;
#X obj 65 -50 phasor~;
#X obj 64 44 *~, f 10;
#X obj 241 68 *~ 512;
#X obj 64 66 +~ 10;
#X obj 65 -73 inlet~;
#X obj 123 -57 loadbang;
#X obj 64 176 *~;
#X obj 82 134 loadbang;
#X obj 4 111 outlet~;
#X obj 65 -7 +~;
#X obj 65 14 wrap~;
#X obj 120 7 r pitchshifter_windowsize_slider_s;
#X obj 82 154 f 1;
#X obj 122 -36 f 0;
#X obj 241 89 tabread~ hann;
#X obj 64 87 vd~ pitchshifter_delay2;
#X obj 64 196 throw~ pitchshifter_shifters2;
#X connect 0 0 7 0;
#X connect 1 0 10 0;
#X connect 2 0 4 0;
#X connect 3 0 15 0;
#X connect 4 0 16 0;
#X connect 5 0 1 0;
#X connect 6 0 14 0;
#X connect 7 0 17 0;
#X connect 8 0 13 0;
#X connect 10 0 11 0;
#X connect 11 0 2 0;
#X connect 11 0 3 0;
#X connect 12 0 2 1;
#X connect 13 0 7 1;
#X connect 14 0 10 1;
#X connect 15 0 0 1;
#X connect 16 0 0 0;
#X connect 16 0 9 0;
#X restore 407 416 pd doppler;
#X obj 437 460 s pitchshifter_outputpitch;
#X obj 392 312 delwrite~ pitchshifter_delay2 5000;
#X obj 166 579 outlet~;
#X obj 85 259 s pitchshifter_transposition_slider_s;
#X text 157 74 Recieve Frequency of Wow;
#X text 157 98 Sinusoidal Wow Oscilator;
#X text 225 125 Recieve Wow Depth;
#N canvas 0 25 450 300 loadbang 0;
#X obj -165 80 loadbang;
#X obj -164 192 s pitchshifter_windowsize_slider_s;
#X msg -152 108 1;
#X msg -164 170 512;
#X obj -152 131 s pitchshifter_mix_slider_s;
#X obj 114 167 outlet;
#X connect 0 0 3 0;
#X connect 0 0 2 0;
#X connect 0 0 5 0;
#X connect 2 0 4 0;
#X connect 3 0 1 0;
#X restore 99 170 pd loadbang;
#X text 152 150 Amplitude of Osc a function on Wow Depth;
#X text 355 260 Transposition Value;
#X text 160 214 Convert to Control rate;
#X obj 85 74 r wowRate;
#X obj 138 125 r wowExtent;
#X connect 0 2 7 0;
#X connect 1 0 3 0;
#X connect 1 1 21 0;
#X connect 2 0 4 0;
#X connect 2 0 13 0;
#X connect 4 0 6 0;
#X connect 4 0 5 0;
#X connect 6 0 0 0;
#X connect 8 0 9 0;
#X connect 9 0 22 0;
#X connect 10 0 8 0;
#X connect 11 0 12 0;
#X connect 12 0 8 0;
#X connect 14 0 16 0;
#X connect 14 0 20 0;
#X connect 15 2 19 0;
#X connect 16 0 18 0;
#X connect 16 0 17 0;
#X connect 18 0 15 0;
#X connect 26 0 10 0;
#X connect 30 0 11 0;
#X connect 31 0 12 1;
#X restore 241 286 pd WowAndFlutter 100;
#X f 31;
#N canvas 211 230 1229 558 Track2 0;
#X obj 438 394 soundfiler;
#X obj 11 78 outlet~;
#X msg 470 78 set symbol \, add2 \$1;
#N canvas 581 311 859 666 readTrackArray 0;
#X obj 104 21 samplerate~;
#X floatatom 23 25 10 0 0 0 - - -;
#X obj 23 44 expr $f1/$f2;
#X obj 23 69 expr 1/$f1;
#X text 136 -18 Get SampleLength of Track;
#X obj 23 1 t f b;
#X obj 17 366 sig~;
#X obj 17 450 phasor~;
#X obj 16 476 *~, f 15;
#N canvas 0 22 450 278 (subpatch) 0;
#X array Track2 431484 float 2;
#X coords 0 1 431484 -1 200 140 1 0 0;
#X restore 576 31 graph;
#X obj 16 766 outlet~;
#X obj 23 231 *, f 46;
#X obj 23 138 *, f 39;
#X text 194 21 Get Sample Rate;
#X text 381 82 IsReversed?;
#X text 54 365 Convert frequency to signal value;
#X text 248 452 Read array from index 1 to N;
#X text 136 499 Read from Array;
#X obj 18 337 spigot;
#X obj 54 296 == 1;
#X obj 100 296 sel 0;
#X obj 100 319 del 2;
#X msg 100 340 0;
#N canvas 446 234 737 300 pan 0;
#X obj 37 37 inlet~;
#X obj 40 184 *~;
#X obj 105 183 *~;
#X obj 55 151 + 1;
#X obj 40 207 outlet~;
#X obj 105 206 outlet~;
#X text 223 73 Recieve Pan value;
#X text 90 129 Invert value for left channel;
#X obj 55 129 * -1;
#X obj 122 75 r pan_Track2;
#X obj 453 54 loadbang;
#X msg 453 77 0.5;
#X obj 453 100 s pan_Track2;
#X connect 0 0 1 0;
#X connect 0 0 2 0;
#X connect 1 0 4 0;
#X connect 2 0 5 0;
#X connect 3 0 1 1;
#X connect 8 0 3 0;
#X connect 9 0 2 1;
#X connect 9 0 8 0;
#X connect 10 0 11 0;
#X connect 11 0 12 0;
#X restore 16 663 pd pan;
#X obj 86 765 outlet~;
#X text 150 765 Left and Right Outlet;
#X text 168 296 Stop playing is play_Track is off;
#X text 66 664 Pan Subpatch;
#X text 113 46 Get period of full file;
#X text 96 72 Get frequency for playback;
#X obj 16 522 *~, f 41;
#X obj 300 499 line~ \$1 10;
#X text 419 476 Recieve Track Volume;
#X text 392 500 Slew at signal rate;
#N canvas 0 25 450 300 reversed 0;
#X obj 72 45 r reverse;
#X obj 72 69 sel 0;
#X obj 124 69 sel 1;
#X msg 72 93 1;
#X msg 124 92 -1;
#X obj 72 116 outlet;
#X text 185 68 When bool = true reverse playback;
#X text 148 44 IsReversed?;
#X connect 0 0 1 0;
#X connect 0 0 2 0;
#X connect 1 0 3 0;
#X connect 2 0 4 0;
#X connect 3 0 5 0;
#X connect 4 0 5 0;
#X restore 294 84 pd reversed;
#X obj -12 335 f;
#X obj 54 316 t b f;
#X obj 23 92 t f f;
#X obj 23 115 f;
#X obj 294 107 t b f;
#X obj 23 161 t f f;
#X obj 23 204 f;
#X obj 56 274 t f f f;
#X obj 16 592 *~;
#X obj 35 564 line~ \$1 50;
#X obj 356 -4 loadbang;
#X msg 356 19 1;
#X obj 356 42 t f f f;
#N canvas 57 148 450 300 pitch 0;
#X obj 92 21 r pitch_mod;
#X obj 143 182 line \$1 10;
#X text 151 45 Get Pitch Mod Value;
#X text 136 157 Slew Value;
#X obj 91 158 t b f;
#X obj 92 67 + 0.25;
#X obj 91 239 outlet;
#X obj 143 239 outlet;
#X floatatom 49 21 5 0 0 0 - - -;
#X floatatom 115 102 5 0 0 0 - - -;
#X obj 93 44 * 1.5;
#X connect 0 0 10 0;
#X connect 1 0 7 0;
#X connect 4 0 6 0;
#X connect 4 1 1 0;
#X connect 5 0 4 0;
#X connect 5 0 9 0;
#X connect 8 0 10 0;
#X connect 10 0 5 0;
#X restore 289 159 pd pitch;
#X floatatom -42 429 5 0 0 0 - - -;
#X obj -42 451 s speed;
#X obj 16 738 *~;
#X obj 86 738 *~;
#X obj 114 708 line~ \$1 10;
#X obj 56 251 r play_Track2;
#X obj 300 476 r volume_Track2;
#X obj 23 -22 r Track2_length;
#X obj 16 499 tabread~ Track2;
#X obj 118 455 r Track2_length;
#X obj 114 685 r loadbuffer_Track2;
#X obj 603 470 loadbang;
#X msg 603 493 0.5;
#X obj 603 516 s volume_Track2;
#X connect 0 0 2 1;
#X connect 1 0 2 0;
#X connect 2 0 3 0;
#X connect 3 0 37 0;
#X connect 5 0 1 0;
#X connect 5 1 0 0;
#X connect 6 0 7 0;
#X connect 7 0 8 0;
#X connect 8 0 57 0;
#X connect 11 0 18 0;
#X connect 11 0 35 1;
#X connect 12 0 40 0;
#X connect 18 0 6 0;
#X connect 18 0 49 0;
#X connect 19 0 36 0;
#X connect 20 0 21 0;
#X connect 21 0 22 0;
#X connect 22 0 6 0;
#X connect 23 0 51 0;
#X connect 23 1 52 0;
#X connect 30 0 43 0;
#X connect 31 0 30 1;
#X connect 34 0 39 0;
#X connect 35 0 6 0;
#X connect 35 0 49 0;
#X connect 36 0 35 0;
#X connect 36 1 18 1;
#X connect 37 0 38 0;
#X connect 37 1 38 1;
#X connect 38 0 12 0;
#X connect 39 0 38 0;
#X connect 39 1 12 1;
#X connect 40 0 41 0;
#X connect 40 1 41 1;
#X connect 41 0 11 0;
#X connect 42 0 19 0;
#X connect 42 1 20 0;
#X connect 42 2 44 0;
#X connect 43 0 23 0;
#X connect 44 0 43 1;
#X connect 45 0 46 0;
#X connect 46 0 47 0;
#X connect 47 0 39 0;
#X connect 47 2 42 0;
#X connect 48 0 41 0;
#X connect 48 1 11 1;
#X connect 49 0 50 0;
#X connect 51 0 10 0;
#X connect 52 0 24 0;
#X connect 53 0 52 1;
#X connect 53 0 51 1;
#X connect 54 0 42 0;
#X connect 55 0 31 0;
#X connect 56 0 5 0;
#X connect 57 0 30 0;
#X connect 58 0 8 1;
#X connect 59 0 53 0;
#X connect 60 0 61 0;
#X connect 61 0 62 0;
#X restore 11 52 pd readTrackArray;
#X obj 126 78 outlet~;
#X text 585 52 Recieve File Location String (NOT IN URL FORM!);
#X text 624 78 Store as symbol;
#X text 716 252 Store audio file in track array;
#X text 579 331 Output sample length of audio file;
#X msg 480 155 set %s\$1.wav;
#X obj 438 182 makefilename;
#X msg 437 108 symbol /Users/issacthomas/Desktop/;
#X obj 438 51 t b s;
#X msg 437 205 set symbol \$1;
#X msg 438 228 symbol file.0;
#X obj 438 5 r saveURL;
#X obj 287 49 t b b;
#X obj 438 28 print saveURL_InTrack;
#X obj 250 418 print SymbolToReadArray;
#X obj 249 454 print MessageToSoundFiler;
#X text 581 314 Normalizes the array;
#X obj 466 285 t b b;
#X msg 532 307 0;
#X msg 466 331 1;
#X obj 401 307 loadbang;
#X obj 286 26 r readURL_Track2;
#X obj 455 418 s Track2_length;
#X obj 480 131 r title_Track2;
#X msg 439 443 \; Track2 normalize;
#X obj 467 354 s loadbuffer_Track2;
#X obj 304 228 r open_Track2;
#X msg 438 260 read -resize \$1 Track2;
#X obj 466 307 del 200;
#X connect 0 0 28 0;
#X connect 0 0 26 0;
#X connect 2 0 11 0;
#X connect 3 0 1 0;
#X connect 3 1 4 0;
#X connect 9 0 10 0;
#X connect 10 0 13 0;
#X connect 11 0 10 0;
#X connect 12 0 11 0;
#X connect 12 1 2 0;
#X connect 13 0 14 0;
#X connect 14 0 31 0;
#X connect 14 0 18 0;
#X connect 15 0 12 0;
#X connect 15 0 17 0;
#X connect 16 0 14 0;
#X connect 16 1 11 0;
#X connect 21 0 22 0;
#X connect 21 0 32 0;
#X connect 22 0 29 0;
#X connect 23 0 29 0;
#X connect 24 0 23 0;
#X connect 25 0 16 0;
#X connect 27 0 9 0;
#X connect 30 0 31 0;
#X connect 31 0 0 0;
#X connect 31 0 19 0;
#X connect 31 0 21 0;
#X connect 32 0 23 0;
#X restore 330 218 pd Track2;
#N canvas 108 423 1226 366 mixer 0;
#X obj 149 81 inlet~;
#X obj 203 81 inlet~;
#X obj 256 81 inlet~;
#X obj 310 81 inlet~;
#X obj 410 81 inlet~;
#X obj 464 81 inlet~;
#X obj 520 81 inlet~;
#X obj 574 81 inlet~;
#X obj 149 104 +~;
#X obj 256 104 +~;
#X obj 149 127 +~;
#X obj 149 150 outlet~;
#X obj 410 104 +~;
#X obj 520 104 +~;
#X obj 410 127 +~;
#X obj 410 150 outlet~;
#X text 408 58 Right Outputs;
#X text 146 58 Left Outputs;
#X text 648 104 Combine Outlets to 2 channels (L&R);
#X connect 0 0 8 0;
#X connect 1 0 8 1;
#X connect 2 0 9 0;
#X connect 3 0 9 1;
#X connect 4 0 12 0;
#X connect 5 0 12 1;
#X connect 6 0 13 0;
#X connect 7 0 13 1;
#X connect 8 0 10 0;
#X connect 9 0 10 1;
#X connect 10 0 11 0;
#X connect 12 0 14 0;
#X connect 13 0 14 0;
#X connect 14 0 15 0;
#X restore 241 254 pd mixer;
#X f 57;
#X text 471 287 Wow and Flutter;
#X text 322 344 Hard Limit output;
#X obj 100 100 cnv 15 300 70 empty empty ENGINE_(OPEN_FOR_FULL_PATCH)
20 12 0 14 -204800 -159808 0;
#X obj 229 135 bng 15 250 50 0 empty empty Marantz_TRK_D90 17 7 0 10
-128992 -1 -1;
#X obj 105 133 bng 15 250 50 0 empty empty Marantz_XLII90 17 7 0 10
-128992 -1 -1;
#X obj 105 151 bng 15 250 50 0 empty empty Marantz_UR90 17 7 0 10 -128992
-1 -1;
#X obj 229 152 bng 15 250 50 0 empty empty Dictaphone_MicroCassette
17 7 0 10 -128992 -1 -1;
#X obj 108 180 s D90;
#X obj 240 179 s XLII90;
#X obj 363 180 s UR90;
#X obj 470 180 s MicroCassette;
#N canvas 35 66 780 558 Hann-window 0;
#X msg 171 263 0;
#X obj 65 312 osc~;
#X obj 65 264 samplerate~;
#X obj 65 335 *~ -0.5;
#X obj 65 358 +~ 0.5;
#X obj 57 241 bng 15 250 50 0 empty empty empty 0 -6 0 8 -262144 -1
-1;
#X text 113 310 period 512;
#X text 90 215 recalculate Hann;
#X text 125 230 window table;
#X obj 57 146 loadbang;
#X obj 58 382 tabwrite~ hann;
#N canvas 0 25 450 300 (subpatch) 0;
#X array hann 512 float 0;
#X coords 0 1 511 0 200 120 1 0 0;
#X restore 294 250 graph;
#X text 279 241 1;
#X text 272 359 0;
#X text 288 372 0;
#X text 336 221 Hann window;
#X text 474 375 511;
#X obj 65 288 / 512;
#X connect 0 0 1 1;
#X connect 1 0 3 0;
#X connect 2 0 17 0;
#X connect 3 0 4 0;
#X connect 4 0 10 0;
#X connect 5 0 2 0;
#X connect 5 0 0 0;
#X connect 5 0 10 0;
#X connect 9 0 5 0;
#X connect 17 0 1 0;
#X restore 417 128 pd Hann-window;
#X text 529 128 Hann window;
#N canvas 0 25 538 326 UnitImpulse 0;
#X obj 24 143 noise~;
#X obj 78 179 writesf~;
#X msg 170 129 open noise.wav;
#X msg 323 128 start;
#X msg 95 118 stop;
#X obj 136 51 bng 15 250 50 0 empty empty empty 17 7 0 10 -262144 -1
-1;
#X msg 24 116 seed 100;
#X obj 136 71 t b b b b;
#X obj 136 98 del 23.22;
#X text 196 48 Generate a 1024 sample impulse;
#X connect 0 0 1 0;
#X connect 2 0 1 0;
#X connect 3 0 1 0;
#X connect 4 0 1 0;
#X connect 5 0 7 0;
#X connect 6 0 0 0;
#X connect 7 0 8 0;
#X connect 7 1 3 0;
#X connect 7 2 6 0;
#X connect 7 3 2 0;
#X connect 8 0 4 0;
#X restore 417 102 pd UnitImpulse;
#X text 530 103 Impulse generator;
#X text 752 105 AUDIO INPUT;
#X text 698 221 TRACKS;
#X text 698 254 MIXER;
#X text 698 287 WOW ENGINE (VARIABLE DELAY LINES);
#X text 698 320 FFT CONVOLUTION ENGINE;
#X text 698 353 LIMITER;
#X text 698 386 LOW PASS FILTER;
#X text 698 419 REVERB ENGINE;
#X text 700 500 OUTPUT AND HIGH PASS FILTER;
#X text 702 636 OUTPUT;
#X text 589 183 Send Selected cassette;
#N canvas 211 230 1229 558 Track3 0;
#X obj 438 394 soundfiler;
#X obj 11 78 outlet~;
#X msg 470 78 set symbol \, add2 \$1;
#N canvas 581 95 859 666 readTrackArray 0;
#X obj 104 21 samplerate~;
#X floatatom 23 25 10 0 0 0 - - -;
#X obj 23 44 expr $f1/$f2;
#X obj 23 69 expr 1/$f1;
#X text 136 -18 Get SampleLength of Track;
#X obj 23 1 t f b;
#X obj 17 366 sig~;
#X obj 17 450 phasor~;
#X obj 16 476 *~, f 15;
#N canvas 0 22 450 278 (subpatch) 0;
#X array Track3 431484 float 2;
#X coords 0 1 431484 -1 200 140 1 0 0;
#X restore 576 31 graph;
#X obj 16 766 outlet~;
#X obj 23 231 *, f 46;
#X obj 23 138 *, f 39;
#X text 194 21 Get Sample Rate;
#X text 381 82 IsReversed?;
#X text 54 365 Convert frequency to signal value;
#X text 248 452 Read array from index 1 to N;
#X text 136 499 Read from Array;
#X obj 18 337 spigot;
#X obj 54 296 == 1;
#X obj 100 296 sel 0;
#X obj 100 319 del 2;
#X msg 100 340 0;
#N canvas 446 234 737 300 pan 0;
#X obj 37 37 inlet~;
#X obj 40 184 *~;
#X obj 105 183 *~;
#X obj 55 151 + 1;
#X obj 40 207 outlet~;
#X obj 105 206 outlet~;
#X text 223 73 Recieve Pan value;
#X text 90 129 Invert value for left channel;
#X obj 55 129 * -1;
#X obj 453 54 loadbang;
#X msg 453 77 0.5;
#X obj 122 75 r pan_Track3;
#X obj 453 100 s pan_Track3;
#X connect 0 0 1 0;
#X connect 0 0 2 0;
#X connect 1 0 4 0;
#X connect 2 0 5 0;
#X connect 3 0 1 1;
#X connect 8 0 3 0;
#X connect 9 0 10 0;
#X connect 10 0 12 0;
#X connect 11 0 2 1;
#X connect 11 0 8 0;
#X restore 16 663 pd pan;
#X obj 86 765 outlet~;
#X text 150 765 Left and Right Outlet;
#X text 168 296 Stop playing is play_Track is off;
#X text 66 664 Pan Subpatch;
#X text 113 46 Get period of full file;
#X text 96 72 Get frequency for playback;
#X obj 16 522 *~, f 41;
#X obj 300 499 line~ \$1 10;
#X text 419 476 Recieve Track Volume;
#X text 392 500 Slew at signal rate;
#N canvas 0 25 450 300 reversed 0;
#X obj 72 45 r reverse;
#X obj 72 69 sel 0;
#X obj 124 69 sel 1;
#X msg 72 93 1;
#X msg 124 92 -1;
#X obj 72 116 outlet;
#X text 185 68 When bool = true reverse playback;
#X text 148 44 IsReversed?;
#X connect 0 0 1 0;
#X connect 0 0 2 0;
#X connect 1 0 3 0;
#X connect 2 0 4 0;
#X connect 3 0 5 0;
#X connect 4 0 5 0;
#X restore 294 84 pd reversed;
#X obj -12 335 f;
#X obj 54 316 t b f;
#X obj 23 92 t f f;
#X obj 23 115 f;
#X obj 294 107 t b f;
#X obj 23 161 t f f;
#X obj 23 204 f;
#X obj 56 274 t f f f;
#X obj 16 592 *~;
#X obj 35 564 line~ \$1 50;
#X obj 356 -4 loadbang;
#X msg 356 19 1;
#X obj 356 42 t f f f;
#N canvas 57 148 450 300 pitch 0;
#X obj 92 21 r pitch_mod;
#X obj 143 182 line \$1 10;
#X text 151 45 Get Pitch Mod Value;
#X text 136 157 Slew Value;
#X obj 91 158 t b f;
#X obj 92 67 + 0.25;
#X obj 91 239 outlet;
#X obj 143 239 outlet;
#X floatatom 49 21 5 0 0 0 - - -;
#X floatatom 115 102 5 0 0 0 - - -;
#X obj 93 44 * 1.5;
#X connect 0 0 10 0;
#X connect 1 0 7 0;
#X connect 4 0 6 0;
#X connect 4 1 1 0;
#X connect 5 0 4 0;
#X connect 5 0 9 0;
#X connect 8 0 10 0;
#X connect 10 0 5 0;
#X restore 289 159 pd pitch;
#X obj 16 738 *~;
#X obj 86 738 *~;
#X obj 114 708 line~ \$1 10;
#X obj 603 470 loadbang;
#X msg 603 493 0.5;
#X obj 56 251 r play_Track3;
#X obj 300 476 r volume_Track3;
#X obj 16 499 tabread~ Track3;
#X obj 603 516 s volume_Track3;
#X obj 23 -22 r Track3_length;
#X obj 118 455 r Track3_length;
#X obj 114 685 r loadbuffer_Track3;
#X connect 0 0 2 1;
#X connect 1 0 2 0;
#X connect 2 0 3 0;
#X connect 3 0 37 0;
#X connect 5 0 1 0;
#X connect 5 1 0 0;
#X connect 6 0 7 0;
#X connect 7 0 8 0;
#X connect 8 0 56 0;
#X connect 11 0 18 0;
#X connect 11 0 35 1;
#X connect 12 0 40 0;
#X connect 18 0 6 0;
#X connect 19 0 36 0;
#X connect 20 0 21 0;
#X connect 21 0 22 0;
#X connect 22 0 6 0;
#X connect 23 0 49 0;
#X connect 23 1 50 0;
#X connect 30 0 43 0;
#X connect 31 0 30 1;
#X connect 34 0 39 0;
#X connect 35 0 6 0;
#X connect 36 0 35 0;
#X connect 36 1 18 1;
#X connect 37 0 38 0;
#X connect 37 1 38 1;
#X connect 38 0 12 0;
#X connect 39 0 38 0;
#X connect 39 1 12 1;
#X connect 40 0 41 0;
#X connect 40 1 41 1;
#X connect 41 0 11 0;
#X connect 42 0 19 0;
#X connect 42 1 20 0;
#X connect 42 2 44 0;
#X connect 43 0 23 0;
#X connect 44 0 43 1;
#X connect 45 0 46 0;
#X connect 46 0 47 0;
#X connect 47 0 39 0;
#X connect 47 2 42 0;
#X connect 48 0 41 0;
#X connect 48 1 11 1;
#X connect 49 0 10 0;
#X connect 50 0 24 0;
#X connect 51 0 50 1;
#X connect 51 0 49 1;
#X connect 52 0 53 0;
#X connect 53 0 57 0;
#X connect 54 0 42 0;
#X connect 55 0 31 0;
#X connect 56 0 30 0;
#X connect 58 0 5 0;
#X connect 59 0 8 1;
#X connect 60 0 51 0;
#X restore 11 52 pd readTrackArray;
#X obj 126 78 outlet~;
#X text 585 52 Recieve File Location String (NOT IN URL FORM!);
#X text 624 78 Store as symbol;
#X text 716 252 Store audio file in track array;
#X text 579 331 Output sample length of audio file;
#X msg 480 155 set %s\$1.wav;
#X obj 438 182 makefilename;
#X msg 437 108 symbol /Users/issacthomas/Desktop/;
#X obj 438 51 t b s;
#X msg 437 205 set symbol \$1;
#X msg 438 228 symbol file.0;
#X obj 438 5 r saveURL;
#X obj 287 49 t b b;
#X obj 438 28 print saveURL_InTrack;
#X obj 250 418 print SymbolToReadArray;
#X obj 249 454 print MessageToSoundFiler;
#X text 581 314 Normalizes the array;
#X obj 466 285 t b b;
#X msg 519 307 0;
#X msg 466 331 1;
#X obj 401 307 loadbang;
#X obj 286 27 r readURL_Track3;
#X obj 479 131 r title_Track3;
#X obj 304 228 r open_Track3;
#X msg 438 260 read -resize \$1 Track3;
#X obj 467 354 s loadbuffer_Track3;
#X obj 455 418 s Track3_length;
#X msg 439 443 \; Track3 normalize;
#X obj 466 307 del 200;
#X connect 0 0 31 0;
#X connect 0 0 30 0;
#X connect 2 0 11 0;
#X connect 3 0 1 0;
#X connect 3 1 4 0;
#X connect 9 0 10 0;
#X connect 10 0 13 0;
#X connect 11 0 10 0;
#X connect 12 0 11 0;
#X connect 12 1 2 0;
#X connect 13 0 14 0;
#X connect 14 0 28 0;
#X connect 14 0 18 0;
#X connect 15 0 12 0;
#X connect 15 0 17 0;
#X connect 16 0 14 0;
#X connect 16 1 11 0;
#X connect 21 0 22 0;
#X connect 21 0 32 0;
#X connect 22 0 29 0;
#X connect 23 0 29 0;
#X connect 24 0 23 0;
#X connect 25 0 16 0;
#X connect 26 0 9 0;
#X connect 27 0 28 0;
#X connect 28 0 0 0;
#X connect 28 0 19 0;
#X connect 28 0 21 0;
#X connect 32 0 23 0;
#X restore 436 217 pd Track3;
#N canvas 211 230 1229 558 Track4 0;
#X obj 438 394 soundfiler;
#X obj 11 78 outlet~;
#X msg 470 78 set symbol \, add2 \$1;
#N canvas 581 679 859 666 readTrackArray 0;
#X obj 104 21 samplerate~;
#X floatatom 23 25 10 0 0 0 - - -;
#X obj 23 44 expr $f1/$f2;
#X obj 23 69 expr 1/$f1;
#X text 136 -18 Get SampleLength of Track;
#X obj 23 1 t f b;
#X obj 17 366 sig~;
#X obj 17 450 phasor~;
#X obj 16 476 *~, f 15;
#N canvas 0 22 450 278 (subpatch) 0;
#X array Track4 431484 float 2;
#X coords 0 1 431484 -1 200 140 1 0 0;
#X restore 576 31 graph;
#X obj 16 766 outlet~;
#X obj 23 231 *, f 46;
#X obj 23 138 *, f 39;
#X text 194 21 Get Sample Rate;
#X text 381 82 IsReversed?;
#X text 54 365 Convert frequency to signal value;
#X text 248 452 Read array from index 1 to N;
#X text 136 499 Read from Array;
#X obj 18 337 spigot;
#X obj 54 296 == 1;
#X obj 100 296 sel 0;
#X obj 100 319 del 2;
#X msg 100 340 0;
#N canvas 446 234 737 300 pan 0;
#X obj 37 37 inlet~;
#X obj 40 184 *~;
#X obj 105 183 *~;
#X obj 55 151 + 1;
#X obj 40 207 outlet~;
#X obj 105 206 outlet~;
#X text 223 73 Recieve Pan value;
#X text 90 129 Invert value for left channel;
#X obj 55 129 * -1;
#X obj 453 54 loadbang;
#X msg 453 77 0.5;
#X obj 122 75 r pan_Track4;
#X obj 453 100 s pan_Track4;
#X connect 0 0 1 0;
#X connect 0 0 2 0;
#X connect 1 0 4 0;
#X connect 2 0 5 0;
#X connect 3 0 1 1;
#X connect 8 0 3 0;
#X connect 9 0 10 0;
#X connect 10 0 12 0;
#X connect 11 0 2 1;
#X connect 11 0 8 0;
#X restore 15 663 pd pan;
#X obj 86 765 outlet~;
#X text 150 765 Left and Right Outlet;
#X text 168 296 Stop playing is play_Track is off;
#X text 66 664 Pan Subpatch;
#X text 113 46 Get period of full file;
#X text 96 72 Get frequency for playback;
#X obj 16 522 *~, f 41;
#X obj 300 499 line~ \$1 10;
#X text 419 476 Recieve Track Volume;
#X text 392 500 Slew at signal rate;
#N canvas 0 25 450 300 reversed 0;
#X obj 72 45 r reverse;
#X obj 72 69 sel 0;
#X obj 124 69 sel 1;
#X msg 72 93 1;
#X msg 124 92 -1;
#X obj 72 116 outlet;
#X text 185 68 When bool = true reverse playback;
#X text 148 44 IsReversed?;
#X connect 0 0 1 0;
#X connect 0 0 2 0;
#X connect 1 0 3 0;
#X connect 2 0 4 0;
#X connect 3 0 5 0;
#X connect 4 0 5 0;
#X restore 294 84 pd reversed;
#X obj -12 335 f;
#X obj 54 316 t b f;
#X obj 23 92 t f f;
#X obj 23 115 f;
#X obj 294 107 t b f;
#X obj 23 161 t f f;
#X obj 23 204 f;
#X obj 56 274 t f f f;
#X obj 16 592 *~;
#X obj 35 564 line~ \$1 50;
#X obj 356 -4 loadbang;
#X msg 356 19 1;
#X obj 356 42 t f f f;
#N canvas 57 148 450 300 pitch 0;
#X obj 92 21 r pitch_mod;
#X obj 143 182 line \$1 10;
#X text 151 45 Get Pitch Mod Value;
#X text 136 157 Slew Value;
#X obj 91 158 t b f;
#X obj 92 67 + 0.25;
#X obj 91 239 outlet;
#X obj 143 239 outlet;
#X floatatom 49 21 5 0 0 0 - - -;
#X floatatom 115 102 5 0 0 0 - - -;
#X obj 93 44 * 1.5;
#X connect 0 0 10 0;
#X connect 1 0 7 0;
#X connect 4 0 6 0;
#X connect 4 1 1 0;
#X connect 5 0 4 0;
#X connect 5 0 9 0;
#X connect 8 0 10 0;
#X connect 10 0 5 0;
#X restore 289 159 pd pitch;
#X obj 16 738 *~;
#X obj 86 738 *~;
#X obj 114 708 line~ \$1 10;
#X obj 603 470 loadbang;
#X msg 603 493 0.5;
#X obj 23 -22 r Track4_length;
#X obj 56 250 r play_Track4;
#X obj 118 455 r Track4_length;
#X obj 16 498 tabread~ Track4;
#X obj 300 476 r volume_Track4;
#X obj 603 516 s volume_Track4;
#X obj 114 685 r loadbuffer_Track4;
#X connect 0 0 2 1;
#X connect 1 0 2 0;
#X connect 2 0 3 0;
#X connect 3 0 37 0;
#X connect 5 0 1 0;
#X connect 5 1 0 0;
#X connect 6 0 7 0;
#X connect 7 0 8 0;
#X connect 8 0 57 0;
#X connect 11 0 18 0;
#X connect 11 0 35 1;
#X connect 12 0 40 0;
#X connect 18 0 6 0;
#X connect 19 0 36 0;
#X connect 20 0 21 0;
#X connect 21 0 22 0;
#X connect 22 0 6 0;
#X connect 23 0 49 0;
#X connect 23 1 50 0;
#X connect 30 0 43 0;
#X connect 31 0 30 1;
#X connect 34 0 39 0;
#X connect 35 0 6 0;
#X connect 36 0 35 0;
#X connect 36 1 18 1;
#X connect 37 0 38 0;
#X connect 37 1 38 1;
#X connect 38 0 12 0;
#X connect 39 0 38 0;
#X connect 39 1 12 1;
#X connect 40 0 41 0;
#X connect 40 1 41 1;
#X connect 41 0 11 0;
#X connect 42 0 19 0;
#X connect 42 1 20 0;
#X connect 42 2 44 0;
#X connect 43 0 23 0;
#X connect 44 0 43 1;
#X connect 45 0 46 0;
#X connect 46 0 47 0;
#X connect 47 0 39 0;
#X connect 47 2 42 0;
#X connect 48 0 41 0;
#X connect 48 1 11 1;
#X connect 49 0 10 0;
#X connect 50 0 24 0;
#X connect 51 0 50 1;
#X connect 51 0 49 1;
#X connect 52 0 53 0;
#X connect 53 0 59 0;
#X connect 54 0 5 0;
#X connect 55 0 42 0;
#X connect 56 0 8 1;
#X connect 57 0 30 0;
#X connect 58 0 31 0;
#X connect 60 0 51 0;
#X restore 11 52 pd readTrackArray;
#X obj 126 78 outlet~;
#X text 585 52 Recieve File Location String (NOT IN URL FORM!);
#X text 624 78 Store as symbol;
#X text 716 252 Store audio file in track array;
#X text 579 331 Output sample length of audio file;
#X msg 480 155 set %s\$1.wav;
#X obj 438 182 makefilename;
#X msg 437 108 symbol /Users/issacthomas/Desktop/;
#X obj 438 51 t b s;
#X msg 437 205 set symbol \$1;
#X msg 438 228 symbol file.0;
#X obj 438 5 r saveURL;
#X obj 287 49 t b b;
#X obj 438 28 print saveURL_InTrack;
#X obj 250 418 print SymbolToReadArray;
#X obj 249 454 print MessageToSoundFiler;
#X text 581 314 Normalizes the array;
#X obj 466 285 t b b;
#X msg 519 307 0;
#X msg 466 331 1;
#X obj 401 307 loadbang;
#X obj 286 27 r readURL_Track4;
#X obj 479 131 r title_Track4;
#X obj 304 228 r open_Track4;
#X msg 438 260 read -resize \$1 Track4;
#X obj 467 354 s loadbuffer_Track4;
#X obj 455 418 s Track4_length;
#X msg 439 443 \; Track4 normalize;
#X obj 465 307 del 200;
#X connect 0 0 31 0;
#X connect 0 0 30 0;
#X connect 2 0 11 0;
#X connect 3 0 1 0;
#X connect 3 1 4 0;
#X connect 9 0 10 0;
#X connect 10 0 13 0;
#X connect 11 0 10 0;
#X connect 12 0 11 0;
#X connect 12 1 2 0;
#X connect 13 0 14 0;
#X connect 14 0 28 0;
#X connect 14 0 18 0;
#X connect 15 0 12 0;
#X connect 15 0 17 0;
#X connect 16 0 14 0;
#X connect 16 1 11 0;
#X connect 21 0 22 0;
#X connect 21 0 32 0;
#X connect 22 0 29 0;
#X connect 23 0 29 0;
#X connect 24 0 23 0;
#X connect 25 0 16 0;
#X connect 26 0 9 0;
#X connect 27 0 28 0;
#X connect 28 0 0 0;
#X connect 28 0 19 0;
#X connect 28 0 21 0;
#X connect 32 0 23 0;
#X restore 568 218 pd Track4;
#X obj 240 573 +~;
#X obj 454 575 +~;
#X obj 303 549 catch~ SFX;
#X text 381 551 SFX Bus;
#X connect 0 0 1 0;
#X connect 0 1 8 0;
#X connect 1 0 18 0;
#X connect 4 0 16 0;
#X connect 5 0 13 0;
#X connect 6 0 22 0;
#X connect 6 1 22 4;
#X connect 8 0 19 0;
#X connect 10 0 17 0;
#X connect 12 0 4 0;
#X connect 12 1 10 0;
#X connect 13 0 4 1;
#X connect 14 0 15 0;
#X connect 15 0 10 1;
#X connect 16 0 51 0;
#X connect 17 0 52 0;
#X connect 18 0 12 0;
#X connect 19 0 12 1;
#X connect 20 0 0 0;
#X connect 20 1 0 1;
#X connect 21 0 22 1;
#X connect 21 1 22 5;
#X connect 22 0 20 0;
#X connect 22 1 20 1;
#X connect 26 0 30 0;
#X connect 27 0 31 0;
#X connect 28 0 32 0;
#X connect 29 0 33 0;
#X connect 49 0 22 2;
#X connect 49 1 22 6;
#X connect 50 0 22 3;
#X connect 50 1 22 7;
#X connect 51 0 11 0;
#X connect 52 0 11 1;
#X connect 53 0 51 1;
#X connect 53 0 52 1;
#X coords 0 -1 1 1 300 70 2 100 100;
#X restore 24 242 pd FFT;
#N canvas 0 25 654 459 FileManager 0;
#X obj 100 100 cnv 15 300 60 empty empty empty 20 12 0 14 -204800 -66577
0;
#X symbolatom 107 139 30 0 0 0 - - -;
#X obj 106 299 s title_Track1;
#X obj 107 163 t b s;
#X msg 139 187 set symbol \, add2 \$1;
#X msg 107 240 symbol normalize;
#X obj 328 141 bng 15 250 50 0 empty empty empty 17 7 0 10 -203904
-1 -1;
#X obj 333 163 openpanel;
#X text 329 124 Open File;
#X text 106 120 New File Name;
#X obj 105 55 r fromFile_Track1;
#X msg 105 76 set symbol \$1;
#X obj 333 186 s open_Track1;
#X obj 347 141 bng 15 250 50 0 empty empty empty 17 7 0 10 -203904
-1 -1;
#X obj 412 163 openpanel;
#X obj 412 186 s open_Track2;
#X obj 365 141 bng 15 250 50 0 empty empty empty 17 7 0 10 -203904
-1 -1;
#X obj 383 141 bng 15 250 50 0 empty empty empty 17 7 0 10 -203904
-1 -1;
#X obj 330 238 openpanel;
#X obj 432 238 openpanel;
#X obj 432 262 s open_Track4;
#X obj 329 261 s open_Track3;
#X connect 1 0 3 0;
#X connect 3 0 5 0;
#X connect 3 1 4 0;
#X connect 4 0 5 0;
#X connect 5 0 2 0;
#X connect 6 0 7 0;
#X connect 7 0 12 0;
#X connect 10 0 11 0;
#X connect 11 0 1 0;
#X connect 13 0 14 0;
#X connect 14 0 15 0;
#X connect 16 0 18 0;
#X connect 17 0 19 0;
#X connect 18 0 21 0;
#X connect 19 0 20 0;
#X coords 0 -1 1 1 300 60 2 100 100;
#X restore 25 317 pd FileManager;
#N canvas 0 25 450 300 reverb 0;
#X obj 100 100 cnv 15 300 60 empty empty empty 20 12 0 14 -203904 -66577
0;
#X floatatom 105 104 5 0 1 0 - - -;
#X obj 105 184 s revDryWet;
#X floatatom 182 104 5 0 1 0 - - -;
#X obj 182 185 s revSize;
#X obj 240 282 r speed;
#X floatatom 240 305 15 0 0 0 - - -;
#X obj 94 282 r pitch_mod;
#X floatatom 94 305 5 0 0 0 - - -;
#X text 105 123 Reverb D/W;
#X text 182 123 Reverb Size;
#X floatatom 263 104 5 0 1 0 - - -;
#X obj 263 186 s revSize;
#X text 263 123 CrossOver;
#X floatatom 333 104 5 0 1 0 - - -;
#X obj 333 187 s revSize;
#X text 333 123 CO LP;
#X obj 89 42 loadbang;
#X msg 89 65 0.5;
#X msg 263 71 0.9;
#X msg 333 72 0.6;
#X msg 182 70 0.5;
#X connect 1 0 2 0;
#X connect 3 0 4 0;
#X connect 5 0 6 0;
#X connect 7 0 8 0;
#X connect 11 0 12 0;
#X connect 14 0 15 0;
#X connect 17 0 18 0;
#X connect 17 0 21 0;
#X connect 17 0 19 0;
#X connect 17 0 20 0;
#X connect 18 0 1 0;
#X connect 19 0 11 0;
#X connect 20 0 14 0;
#X connect 21 0 3 0;
#X coords 0 -1 1 1 300 60 2 100 100;
#X restore 25 380 pd reverb;
